# xmcd CD database file
#
# Track frame offsets:
#	150
#	10665
#	23705
#	35356
#	45568
#	58886
#	71191
#	90668
#	104820
#	115293
#	130997
#	142774
#
# Disc length: 2053 seconds
#
# Revision: 0
# Processed by: cddbd v1.5.2PL0 Copyright (c) Steve Scherf et al.
# Submitted via: CDex 1.70beta2
#
DISCID=a408030c
DTITLE=Various Artist - At Last - Romantic Classics - Disc 2
DYEAR=2012
DGENRE=Jazz
TTITLE0=Call Me Irresponsible - Dinah Washington
TTITLE1=The Very Thought Of You - Nancy Wilson
TTITLE2=L-O-V-E - Nat King Cole
TTITLE3=You'd Be So Nice To Come Home To - Julie London
TTITLE4=Fools Rush In - Keely Smith
TTITLE5=Sway (Quien Sera) - Dean Martin
TTITLE6=Something Cool - June Christy
TTITLE7=La Vie En Rose - Edith Piaf
TTITLE8=My Funny Valentine - Chet Baker
TTITLE9=Moon River - Lena Horne
TTITLE10=Danke Schoen - Wayne Newton
TTITLE11=I'll Be Seeing You - Peggy Lee
EXTD=YEAR: 2012
EXTT0=
EXTT1=
EXTT2=
EXTT3=
EXTT4=
EXTT5=
EXTT6=
EXTT7=
EXTT8=
EXTT9=
EXTT10=
EXTT11=
PLAYORDER=
